<svg width="52" height="45" viewBox="0 0 52 45" fill="none" xmlns="http://www.w3.org/2000/svg">
<path d="M48 3.2V41.6V41.61H3.21C3.21 41.61 3.21 41.61 3.2 41.6V3.21L3.21 3.2H48ZM48 0H3.2C1.44 0 0 1.44 0 3.2V41.6C0 43.36 1.44 44.8 3.2 44.8H48C49.76 44.8 51.2 43.36 51.2 41.6V3.2C51.2 1.44 49.76 0 48 0Z" fill="#DAB600"/>
<path d="M41.6 11.1999C41.6 13.8499 39.45 15.9999 36.8 15.9999C34.15 15.9999 32 13.8499 32 11.1999C32 8.5499 34.15 6.3999 36.8 6.3999C39.45 6.3999 41.6 8.5499 41.6 11.1999Z" fill="#DAB600"/>
<path d="M44.8 38.4H6.40002V32L17.6 12.8L30.4 28.8H33.6L44.8 19.2V38.4Z" fill="#DAB600"/>
</svg>
