<svg width="38" height="22" viewBox="0 0 38 22" fill="none" xmlns="http://www.w3.org/2000/svg">
<path fill-rule="evenodd" clip-rule="evenodd" d="M1.4459 3.13H36.5541C37.3523 3.13 38 2.429 38 1.565C38 0.701 37.3523 0 36.5541 0H1.4459C0.647654 0 0 0.701 0 1.565C0 2.429 0.647654 3.13 1.4459 3.13Z" fill="white"/>
<path fill-rule="evenodd" clip-rule="evenodd" d="M1.4459 12.13H36.5541C37.3523 12.13 38 11.429 38 10.565C38 9.701 37.3523 9 36.5541 9H1.4459C0.647654 9 0 9.701 0 10.565C0 11.429 0.647654 12.13 1.4459 12.13Z" fill="white"/>
<path fill-rule="evenodd" clip-rule="evenodd" d="M1.4459 21.13H36.5541C37.3523 21.13 38 20.429 38 19.565C38 18.701 37.3523 18 36.5541 18H1.4459C0.647654 18 0 18.701 0 19.565C0 20.429 0.647654 21.13 1.4459 21.13Z" fill="white"/>
</svg>
