<svg width="51" height="60" viewBox="0 0 51 60" fill="none" xmlns="http://www.w3.org/2000/svg">
<path d="M24.0225 48C27.4492 48.0017 30.8361 47.265 33.9525 45.84L42.7525 58.31C43.3638 59.1772 44.2946 59.7661 45.3401 59.9471C46.3857 60.1281 47.4602 59.8863 48.3275 59.275C49.1948 58.6637 49.7836 57.7329 49.9646 56.6873C50.1456 55.6418 49.9038 54.5672 49.2925 53.7L40.5825 41.35C44.614 37.4968 47.1779 32.3599 47.8336 26.8218C48.4893 21.2837 47.1959 15.6901 44.1756 11.002C41.1552 6.31387 36.5966 2.8239 31.2828 1.13164C25.9689 -0.560616 20.2316 -0.34953 15.0565 1.72864C9.88141 3.80681 5.59156 7.62233 2.92392 12.5197C0.256289 17.4171 -0.622583 23.0906 0.438296 28.5655C1.49917 34.0405 4.43357 38.9751 8.73738 42.5216C13.0412 46.0682 18.4457 48.0052 24.0225 48ZM24.0225 7.99999C27.187 7.99999 30.2804 8.93838 32.9116 10.6965C35.5428 12.4546 37.5936 14.9534 38.8046 17.8771C40.0156 20.8007 40.3324 24.0177 39.7151 27.1214C39.0977 30.2251 37.5738 33.0761 35.3362 35.3137C33.0986 37.5513 30.2476 39.0752 27.1439 39.6926C24.0402 40.3099 20.8232 39.9931 17.8996 38.7821C14.9759 37.5711 12.4771 35.5203 10.719 32.8891C8.96088 30.2579 8.0225 27.1645 8.0225 24C8.0225 19.7565 9.70821 15.6869 12.7088 12.6863C15.7094 9.6857 19.779 7.99999 24.0225 7.99999Z" fill="#A4A4A4"/>
</svg>
