<svg width="85" height="81" viewBox="0 0 85 81" fill="none" xmlns="http://www.w3.org/2000/svg">
<path d="M63.9269 80.7032C62.9269 80.7032 61.8253 80.4024 60.8253 79.9024L42.0283 70.004L23.2273 79.9024C21.0281 81.1016 18.3289 80.9024 16.3289 79.4024C14.3289 77.9024 13.3289 75.504 13.7273 73.004L17.3289 52.004L2.02785 37.102C0.227052 35.4028 -0.472148 32.8012 0.328652 30.4028C1.12945 28.0044 3.12945 26.3012 5.62945 25.9028L26.7315 22.8012L36.1299 3.6992C37.2315 1.3984 39.5283 0 42.0283 0C44.5283 0 46.8291 1.3984 47.9267 3.6992L57.3251 22.8012L78.4271 25.9028C80.9271 26.3012 82.9271 28.0044 83.7279 30.4028C84.5287 32.8012 83.8294 35.4028 82.0287 37.102L66.8297 52.004L70.4313 73.004C70.8297 75.504 69.8297 77.9024 67.8297 79.4024C66.6305 80.2032 65.3292 80.7032 63.9269 80.7032ZM42.0289 65.7032C42.3296 65.7032 42.6304 65.8047 42.9273 65.9024L62.7283 76.4024C63.6267 76.9024 64.6267 76.8008 65.4275 76.2032C66.2283 75.6016 66.6267 74.7032 66.4275 73.7032L62.6267 51.7032C62.5251 51.1016 62.7283 50.4024 63.2283 49.9024L79.2283 34.3004C79.9275 33.6012 80.2283 32.6012 79.9275 31.6988C79.6267 30.6988 78.8259 30.0972 77.8259 29.9996L55.7239 26.8004C55.0246 26.6988 54.5247 26.3004 54.2239 25.6988L44.3255 5.69878C43.927 4.80034 43.0247 4.30038 42.0247 4.30038C41.0247 4.30038 40.1263 4.80038 39.7239 5.69878L29.8255 25.6988C29.5247 26.3003 28.927 26.6988 28.3255 26.8004L6.22347 29.9996C5.22347 30.1011 4.42267 30.8004 4.12187 31.6988C3.82109 32.6988 4.02031 33.5972 4.72343 34.3004L20.7234 49.9024C21.2234 50.4024 21.4227 51.004 21.325 51.7032L17.5242 73.7032C17.325 74.7032 17.7234 75.6016 18.5242 76.2032C19.325 76.8047 20.325 76.9024 21.2234 76.4024L41.0244 66.0044C41.4267 65.8013 41.7281 65.7032 42.0289 65.7032Z" fill="#0E63BE"/>
</svg>
