<svg width="64" height="62" viewBox="0 0 64 62" fill="none" xmlns="http://www.w3.org/2000/svg">
<path d="M32 44.0006C33.6602 44.0006 35 42.6608 35 41.0006V10.2386L43.0586 18.2972C43.6484 18.8871 44.4102 19.1761 45.1797 19.1761C45.9492 19.1761 46.7188 18.8871 47.3008 18.2972C48.4727 17.1253 48.4727 15.2269 47.3008 14.0589L34.1208 0.878925C32.9489 -0.292975 31.0505 -0.292975 29.8825 0.878925L16.6985 14.0589C15.5266 15.2308 15.5266 17.1292 16.6985 18.2972C17.8704 19.4691 19.7688 19.4691 20.9368 18.2972L28.9993 10.2386V41.0006C28.9993 42.6608 30.3398 44.0006 32 44.0006Z" fill="#5E5E5E"/>
<path d="M3 38.0007C1.3398 38.0007 0 39.3405 0 41.0007V51.1917C0 57.1487 4.8516 62.0007 10.809 62.0007H53.18C59.1488 62.0007 64 57.1491 64 51.1917V41.0007C64 39.3405 62.6602 38.0007 61 38.0007C59.3398 38.0007 58 39.3405 58 41.0007V51.1917C58 53.8401 55.8398 56.0003 53.1914 56.0003H10.8084C8.16 56.0003 5.9998 53.8401 5.9998 51.1917V41.0007C5.9998 39.3405 4.6602 38.0007 3 38.0007Z" fill="#5E5E5E"/>
</svg>
